<?xml version="1.0" encoding="utf-8"?>
<!-- Generator: Adobe Illustrator 22.0.0, SVG Export Plug-In . SVG Version: 6.00 Build 0)  -->
<svg version="1.1" id="Layer_1" xmlns="http://www.w3.org/2000/svg" xmlns:xlink="http://www.w3.org/1999/xlink" x="0px" y="0px"
	 viewBox="0 0 3119.1 1182.9" style="enable-background:new 0 0 3119.1 1182.9;" xml:space="preserve">
<style type="text/css">
	.st0{fill:#28398f;}
</style>
<g>
	<path class="st0" d="M804.6,293L595.9,544.2l-1.3-1.5L472.8,396.3h-81v392.9h81l123.1-147.9L719,789.2h81V395.8l3.8-4.7l81.6-98.1
		L804.6,293L804.6,293z M454.9,713.7V471.9l100.6,120.9L454.9,713.7z M736.9,713.7L636.3,592.8l100.6-121L736.9,713.7L736.9,713.7z"
		/>
</g>
<g>
	<path d="M992.7,736V449.6h133.8v18.2h-114v114.8h105.8v18h-105.8V718h120.6v18H992.7z"/>
	<path d="M1352.4,736l-65.9-109.2c-4.1-6.8-7.7-13.4-10.6-20h-1c-3.6,7.3-7.4,14-11.4,20L1196.4,736h-23.8l90.5-144.4l-85.1-142
		h23.8l64.1,107.6c3.3,5.6,6.8,12,10.4,19.2h0.8l10.6-19.2l63.7-107.6h23l-85.9,141.6l87.9,144.8H1352.4z"/>
	<path d="M1447.3,621.2V736h-19.8V449.6h69.1c29.4,0,51.9,6.8,67.5,20.5c15.6,13.6,23.4,33.6,23.4,59.8c0,26.6-8.7,48.5-26.1,65.6
		c-17.4,17.1-41.7,25.7-73,25.7H1447.3z M1447.3,467.8V603h40.7c25.8,0,45.5-6.2,58.9-18.5c13.4-12.3,20.2-29.7,20.2-52.2
		c0-43-24.7-64.5-74.1-64.5H1447.3z"/>
	<path d="M1650,736V449.6h19.8V718h114.8v18H1650z"/>
	<path d="M1934,741c-40.5,0-72.7-13.4-96.8-40.3c-24-26.9-36-61.8-36-104.8c0-45.7,12.3-82.2,37-109.7
		c24.7-27.5,58.4-41.2,101.2-41.2c38.6,0,69.9,13.2,93.8,39.6c23.9,26.4,35.8,61.1,35.8,103.9c0,47.4-12.3,84.7-36.7,111.8
		C2007.7,727.4,1975,741,1934,741z M1936,462.8c-33.3,0-60.7,12.1-82.2,36.1c-21.5,24.1-32.3,55.7-32.3,94.7
		c0,39.4,10.2,70.8,30.6,94.2c20.4,23.4,47.5,35,81.5,35c35.4,0,63.4-11.5,84.1-34.6c20.6-23.1,31-55.3,31-96.6
		c0-40.5-10.1-72.1-30.3-94.8C1998.2,474.2,1970.7,462.8,1936,462.8z"/>
	<path d="M2274.1,736l-38.1-83.9c-7.9-17.3-15.7-28.9-23.6-34.8c-7.9-5.9-17.7-8.9-29.6-8.9h-35.5V736h-19.8V449.6h79.5
		c25.3,0,45.2,6.8,59.6,20.5c14.4,13.6,21.7,31.7,21.7,54c0,20.6-5.9,37.9-17.8,51.7c-11.9,13.8-28.4,22.8-49.7,26.8v0.8
		c11.3,4.5,22.4,18.3,33.2,41.3l42.5,91.3H2274.1z M2147.3,467.8v122.6h49.3c21.8,0,39.2-5.7,52-17.2c12.8-11.4,19.3-27.2,19.3-47.1
		c0-18.2-5.8-32.5-17.4-42.8c-11.6-10.3-28.2-15.5-49.7-15.5H2147.3z"/>
	<path d="M2354.5,736V449.6h133.8v18.2h-114v114.8h105.8v18h-105.8V718h120.6v18H2354.5z"/>
	<path d="M2705.6,736l-38.1-83.9c-7.9-17.3-15.7-28.9-23.6-34.8c-7.9-5.9-17.7-8.9-29.6-8.9h-35.5V736H2559V449.6h79.5
		c25.3,0,45.2,6.8,59.6,20.5c14.4,13.6,21.7,31.7,21.7,54c0,20.6-5.9,37.9-17.8,51.7c-11.9,13.8-28.4,22.8-49.7,26.8v0.8
		c11.3,4.5,22.4,18.3,33.2,41.3L2728,736H2705.6z M2578.8,467.8v122.6h49.3c21.8,0,39.2-5.7,52-17.2c12.8-11.4,19.3-27.2,19.3-47.1
		c0-18.2-5.8-32.5-17.4-42.8c-11.6-10.3-28.2-15.5-49.7-15.5H2578.8z"/>
</g>
</svg>
